solid OpenSCAD_Model
  facet normal 0 -1 0
    outer loop
      vertex -14.079 2.5 0
      vertex -11.6231 2.5 4
      vertex -14.079 2.5 4
    endloop
  endfacet
  facet normal 0 -1 -0
    outer loop
      vertex -11.6231 2.5 4
      vertex -14.079 2.5 0
      vertex -11.6231 2.5 0
    endloop
  endfacet
  facet normal 0 -1 0
    outer loop
      vertex 11.6231 2.5 0
      vertex 14.079 2.5 4
      vertex 11.6231 2.5 4
    endloop
  endfacet
  facet normal 0 -1 -0
    outer loop
      vertex 14.079 2.5 4
      vertex 11.6231 2.5 0
      vertex 14.079 2.5 0
    endloop
  endfacet
  facet normal 0 1 -0
    outer loop
      vertex -11.6231 -2.5 0
      vertex -14.079 -2.5 4
      vertex -11.6231 -2.5 4
    endloop
  endfacet
  facet normal 0 1 0
    outer loop
      vertex -14.079 -2.5 4
      vertex -11.6231 -2.5 0
      vertex -14.079 -2.5 0
    endloop
  endfacet
  facet normal 0 1 -0
    outer loop
      vertex 14.079 -2.5 0
      vertex 11.6231 -2.5 4
      vertex 14.079 -2.5 4
    endloop
  endfacet
  facet normal 0 1 0
    outer loop
      vertex 11.6231 -2.5 4
      vertex 14.079 -2.5 0
      vertex 11.6231 -2.5 0
    endloop
  endfacet
  facet normal 1 -0 0
    outer loop
      vertex -2.5 11.6231 4
      vertex -2.5 14.079 0
      vertex -2.5 14.079 4
    endloop
  endfacet
  facet normal 1 0 0
    outer loop
      vertex -2.5 14.079 0
      vertex -2.5 11.6231 4
      vertex -2.5 11.6231 0
    endloop
  endfacet
  facet normal -1 0 0
    outer loop
      vertex 2.5 11.6231 0
      vertex 2.5 14.079 4
      vertex 2.5 14.079 0
    endloop
  endfacet
  facet normal -1 -0 0
    outer loop
      vertex 2.5 14.079 4
      vertex 2.5 11.6231 0
      vertex 2.5 11.6231 4
    endloop
  endfacet
  facet normal -1 0 0
    outer loop
      vertex 2.5 -14.079 0
      vertex 2.5 -11.6231 4
      vertex 2.5 -11.6231 0
    endloop
  endfacet
  facet normal -1 -0 0
    outer loop
      vertex 2.5 -11.6231 4
      vertex 2.5 -14.079 0
      vertex 2.5 -14.079 4
    endloop
  endfacet
  facet normal 1 -0 0
    outer loop
      vertex -2.5 -14.079 4
      vertex -2.5 -11.6231 0
      vertex -2.5 -11.6231 4
    endloop
  endfacet
  facet normal 1 0 0
    outer loop
      vertex -2.5 -11.6231 0
      vertex -2.5 -14.079 4
      vertex -2.5 -14.079 0
    endloop
  endfacet
  facet normal 0.976293 0.216455 0
    outer loop
      vertex 14.079 2.5 4
      vertex 13.8127 3.70111 0
      vertex 13.8127 3.70111 4
    endloop
  endfacet
  facet normal 0.976293 0.216455 0
    outer loop
      vertex 13.8127 3.70111 0
      vertex 14.079 2.5 4
      vertex 14.079 2.5 0
    endloop
  endfacet
  facet normal 0.887024 -0.461724 0
    outer loop
      vertex 12.3842 -7.15 4
      vertex 12.9602 -6.04344 0
      vertex 12.9602 -6.04344 4
    endloop
  endfacet
  facet normal 0.887024 -0.461724 0
    outer loop
      vertex 12.9602 -6.04344 0
      vertex 12.3842 -7.15 4
      vertex 12.3842 -7.15 0
    endloop
  endfacet
  facet normal 0.537307 0.843387 -0
    outer loop
      vertex 8.20214 11.7139 0
      vertex 7.15 12.3842 4
      vertex 8.20214 11.7139 4
    endloop
  endfacet
  facet normal 0.537307 0.843387 0
    outer loop
      vertex 7.15 12.3842 4
      vertex 8.20214 11.7139 0
      vertex 7.15 12.3842 0
    endloop
  endfacet
  facet normal -0.216455 0.976293 0
    outer loop
      vertex -2.5 14.079 0
      vertex -3.70111 13.8127 4
      vertex -2.5 14.079 4
    endloop
  endfacet
  facet normal -0.216455 0.976293 0
    outer loop
      vertex -3.70111 13.8127 4
      vertex -2.5 14.079 0
      vertex -3.70111 13.8127 0
    endloop
  endfacet
  facet normal -0.300679 -0.953725 0
    outer loop
      vertex -4.89089 -13.4376 0
      vertex -3.70111 -13.8127 4
      vertex -4.89089 -13.4376 4
    endloop
  endfacet
  facet normal -0.300679 -0.953725 -0
    outer loop
      vertex -3.70111 -13.8127 4
      vertex -4.89089 -13.4376 0
      vertex -3.70111 -13.8127 0
    endloop
  endfacet
  facet normal -0.737272 -0.675596 0
    outer loop
      vertex -10.1116 -10.1116 0
      vertex -10.9544 -9.19186 4
      vertex -10.9544 -9.19186 0
    endloop
  endfacet
  facet normal -0.737272 -0.675596 0
    outer loop
      vertex -10.9544 -9.19186 4
      vertex -10.1116 -10.1116 0
      vertex -10.1116 -10.1116 4
    endloop
  endfacet
  facet normal 0.843387 0.537307 0
    outer loop
      vertex 12.3842 7.15 4
      vertex 11.7139 8.20214 0
      vertex 11.7139 8.20214 4
    endloop
  endfacet
  facet normal 0.843387 0.537307 0
    outer loop
      vertex 11.7139 8.20214 0
      vertex 12.3842 7.15 4
      vertex 12.3842 7.15 0
    endloop
  endfacet
  facet normal -0.953725 -0.300679 0
    outer loop
      vertex -13.4376 -4.89089 0
      vertex -13.8127 -3.70111 4
      vertex -13.8127 -3.70111 0
    endloop
  endfacet
  facet normal -0.953725 -0.300679 0
    outer loop
      vertex -13.8127 -3.70111 4
      vertex -13.4376 -4.89089 0
      vertex -13.4376 -4.89089 4
    endloop
  endfacet
  facet normal -0.953725 0.300679 0
    outer loop
      vertex -13.8127 3.70111 0
      vertex -13.4376 4.89089 4
      vertex -13.4376 4.89089 0
    endloop
  endfacet
  facet normal -0.953725 0.300679 0
    outer loop
      vertex -13.4376 4.89089 4
      vertex -13.8127 3.70111 0
      vertex -13.8127 3.70111 4
    endloop
  endfacet
  facet normal 0.300679 -0.953725 0
    outer loop
      vertex 3.70111 -13.8127 0
      vertex 4.89089 -13.4376 4
      vertex 3.70111 -13.8127 4
    endloop
  endfacet
  facet normal 0.300679 -0.953725 0
    outer loop
      vertex 4.89089 -13.4376 4
      vertex 3.70111 -13.8127 0
      vertex 4.89089 -13.4376 0
    endloop
  endfacet
  facet normal -0.79333 0.608792 0
    outer loop
      vertex -11.7139 8.20214 0
      vertex -10.9544 9.19186 4
      vertex -10.9544 9.19186 0
    endloop
  endfacet
  facet normal -0.79333 0.608792 0
    outer loop
      vertex -10.9544 9.19186 4
      vertex -11.7139 8.20214 0
      vertex -11.7139 8.20214 4
    endloop
  endfacet
  facet normal -0.461724 0.887024 0
    outer loop
      vertex -6.04344 12.9602 0
      vertex -7.15 12.3842 4
      vertex -6.04344 12.9602 4
    endloop
  endfacet
  facet normal -0.461724 0.887024 0
    outer loop
      vertex -7.15 12.3842 4
      vertex -6.04344 12.9602 0
      vertex -7.15 12.3842 0
    endloop
  endfacet
  facet normal 0.675596 0.737272 -0
    outer loop
      vertex 10.1116 10.1116 0
      vertex 9.19186 10.9544 4
      vertex 10.1116 10.1116 4
    endloop
  endfacet
  facet normal 0.675596 0.737272 0
    outer loop
      vertex 9.19186 10.9544 4
      vertex 10.1116 10.1116 0
      vertex 9.19186 10.9544 0
    endloop
  endfacet
  facet normal 0.953725 0.300679 0
    outer loop
      vertex 13.8127 3.70111 4
      vertex 13.4376 4.89089 0
      vertex 13.4376 4.89089 4
    endloop
  endfacet
  facet normal 0.953725 0.300679 0
    outer loop
      vertex 13.4376 4.89089 0
      vertex 13.8127 3.70111 4
      vertex 13.8127 3.70111 0
    endloop
  endfacet
  facet normal -0.382682 0.92388 0
    outer loop
      vertex -4.89089 13.4376 0
      vertex -6.04344 12.9602 4
      vertex -4.89089 13.4376 4
    endloop
  endfacet
  facet normal -0.382682 0.92388 0
    outer loop
      vertex -6.04344 12.9602 4
      vertex -4.89089 13.4376 0
      vertex -6.04344 12.9602 0
    endloop
  endfacet
  facet normal 0.79333 0.608792 0
    outer loop
      vertex 11.7139 8.20214 4
      vertex 10.9544 9.19186 0
      vertex 10.9544 9.19186 4
    endloop
  endfacet
  facet normal 0.79333 0.608792 0
    outer loop
      vertex 10.9544 9.19186 0
      vertex 11.7139 8.20214 4
      vertex 11.7139 8.20214 0
    endloop
  endfacet
  facet normal -0.79333 -0.608792 0
    outer loop
      vertex -10.9544 -9.19186 0
      vertex -11.7139 -8.20214 4
      vertex -11.7139 -8.20214 0
    endloop
  endfacet
  facet normal -0.79333 -0.608792 0
    outer loop
      vertex -11.7139 -8.20214 4
      vertex -10.9544 -9.19186 0
      vertex -10.9544 -9.19186 4
    endloop
  endfacet
  facet normal -0.843387 0.537307 0
    outer loop
      vertex -12.3842 7.15 0
      vertex -11.7139 8.20214 4
      vertex -11.7139 8.20214 0
    endloop
  endfacet
  facet normal -0.843387 0.537307 0
    outer loop
      vertex -11.7139 8.20214 4
      vertex -12.3842 7.15 0
      vertex -12.3842 7.15 4
    endloop
  endfacet
  facet normal -0.608792 -0.79333 0
    outer loop
      vertex -9.19186 -10.9544 0
      vertex -8.20214 -11.7139 4
      vertex -9.19186 -10.9544 4
    endloop
  endfacet
  facet normal -0.608792 -0.79333 -0
    outer loop
      vertex -8.20214 -11.7139 4
      vertex -9.19186 -10.9544 0
      vertex -8.20214 -11.7139 0
    endloop
  endfacet
  facet normal 0.737272 0.675596 0
    outer loop
      vertex 10.9544 9.19186 4
      vertex 10.1116 10.1116 0
      vertex 10.1116 10.1116 4
    endloop
  endfacet
  facet normal 0.737272 0.675596 0
    outer loop
      vertex 10.1116 10.1116 0
      vertex 10.9544 9.19186 4
      vertex 10.9544 9.19186 0
    endloop
  endfacet
  facet normal 0.537307 -0.843387 0
    outer loop
      vertex 7.15 -12.3842 0
      vertex 8.20214 -11.7139 4
      vertex 7.15 -12.3842 4
    endloop
  endfacet
  facet normal 0.537307 -0.843387 0
    outer loop
      vertex 8.20214 -11.7139 4
      vertex 7.15 -12.3842 0
      vertex 8.20214 -11.7139 0
    endloop
  endfacet
  facet normal 0.300679 0.953725 -0
    outer loop
      vertex 4.89089 13.4376 0
      vertex 3.70111 13.8127 4
      vertex 4.89089 13.4376 4
    endloop
  endfacet
  facet normal 0.300679 0.953725 0
    outer loop
      vertex 3.70111 13.8127 4
      vertex 4.89089 13.4376 0
      vertex 3.70111 13.8127 0
    endloop
  endfacet
  facet normal -0.608792 0.79333 0
    outer loop
      vertex -8.20214 11.7139 0
      vertex -9.19186 10.9544 4
      vertex -8.20214 11.7139 4
    endloop
  endfacet
  facet normal -0.608792 0.79333 0
    outer loop
      vertex -9.19186 10.9544 4
      vertex -8.20214 11.7139 0
      vertex -9.19186 10.9544 0
    endloop
  endfacet
  facet normal -0.843387 -0.537307 0
    outer loop
      vertex -11.7139 -8.20214 0
      vertex -12.3842 -7.15 4
      vertex -12.3842 -7.15 0
    endloop
  endfacet
  facet normal -0.843387 -0.537307 0
    outer loop
      vertex -12.3842 -7.15 4
      vertex -11.7139 -8.20214 0
      vertex -11.7139 -8.20214 4
    endloop
  endfacet
  facet normal -0.300679 0.953725 0
    outer loop
      vertex -3.70111 13.8127 0
      vertex -4.89089 13.4376 4
      vertex -3.70111 13.8127 4
    endloop
  endfacet
  facet normal -0.300679 0.953725 0
    outer loop
      vertex -4.89089 13.4376 4
      vertex -3.70111 13.8127 0
      vertex -4.89089 13.4376 0
    endloop
  endfacet
  facet normal -0.92388 -0.382682 0
    outer loop
      vertex -12.9602 -6.04344 0
      vertex -13.4376 -4.89089 4
      vertex -13.4376 -4.89089 0
    endloop
  endfacet
  facet normal -0.92388 -0.382682 0
    outer loop
      vertex -13.4376 -4.89089 4
      vertex -12.9602 -6.04344 0
      vertex -12.9602 -6.04344 4
    endloop
  endfacet
  facet normal -0.537307 0.843387 0
    outer loop
      vertex -7.15 12.3842 0
      vertex -8.20214 11.7139 4
      vertex -7.15 12.3842 4
    endloop
  endfacet
  facet normal -0.537307 0.843387 0
    outer loop
      vertex -8.20214 11.7139 4
      vertex -7.15 12.3842 0
      vertex -8.20214 11.7139 0
    endloop
  endfacet
  facet normal -0.92388 0.382682 0
    outer loop
      vertex -13.4376 4.89089 0
      vertex -12.9602 6.04344 4
      vertex -12.9602 6.04344 0
    endloop
  endfacet
  facet normal -0.92388 0.382682 0
    outer loop
      vertex -12.9602 6.04344 4
      vertex -13.4376 4.89089 0
      vertex -13.4376 4.89089 4
    endloop
  endfacet
  facet normal 0.608792 0.79333 -0
    outer loop
      vertex 9.19186 10.9544 0
      vertex 8.20214 11.7139 4
      vertex 9.19186 10.9544 4
    endloop
  endfacet
  facet normal 0.608792 0.79333 0
    outer loop
      vertex 8.20214 11.7139 4
      vertex 9.19186 10.9544 0
      vertex 8.20214 11.7139 0
    endloop
  endfacet
  facet normal 0.461724 0.887024 -0
    outer loop
      vertex 7.15 12.3842 0
      vertex 6.04344 12.9602 4
      vertex 7.15 12.3842 4
    endloop
  endfacet
  facet normal 0.461724 0.887024 0
    outer loop
      vertex 6.04344 12.9602 4
      vertex 7.15 12.3842 0
      vertex 6.04344 12.9602 0
    endloop
  endfacet
  facet normal 0.382682 0.92388 -0
    outer loop
      vertex 6.04344 12.9602 0
      vertex 4.89089 13.4376 4
      vertex 6.04344 12.9602 4
    endloop
  endfacet
  facet normal 0.382682 0.92388 0
    outer loop
      vertex 4.89089 13.4376 4
      vertex 6.04344 12.9602 0
      vertex 4.89089 13.4376 0
    endloop
  endfacet
  facet normal 0.608792 -0.79333 0
    outer loop
      vertex 8.20214 -11.7139 0
      vertex 9.19186 -10.9544 4
      vertex 8.20214 -11.7139 4
    endloop
  endfacet
  facet normal 0.608792 -0.79333 0
    outer loop
      vertex 9.19186 -10.9544 4
      vertex 8.20214 -11.7139 0
      vertex 9.19186 -10.9544 0
    endloop
  endfacet
  facet normal 0.79333 -0.608792 0
    outer loop
      vertex 10.9544 -9.19186 4
      vertex 11.7139 -8.20214 0
      vertex 11.7139 -8.20214 4
    endloop
  endfacet
  facet normal 0.79333 -0.608792 0
    outer loop
      vertex 11.7139 -8.20214 0
      vertex 10.9544 -9.19186 4
      vertex 10.9544 -9.19186 0
    endloop
  endfacet
  facet normal 0.92388 0.382682 0
    outer loop
      vertex 13.4376 4.89089 4
      vertex 12.9602 6.04344 0
      vertex 12.9602 6.04344 4
    endloop
  endfacet
  facet normal 0.92388 0.382682 0
    outer loop
      vertex 12.9602 6.04344 0
      vertex 13.4376 4.89089 4
      vertex 13.4376 4.89089 0
    endloop
  endfacet
  facet normal -0.976293 -0.216455 0
    outer loop
      vertex -13.8127 -3.70111 0
      vertex -14.079 -2.5 4
      vertex -14.079 -2.5 0
    endloop
  endfacet
  facet normal -0.976293 -0.216455 0
    outer loop
      vertex -14.079 -2.5 4
      vertex -13.8127 -3.70111 0
      vertex -13.8127 -3.70111 4
    endloop
  endfacet
  facet normal 0.382682 -0.92388 0
    outer loop
      vertex 4.89089 -13.4376 0
      vertex 6.04344 -12.9602 4
      vertex 4.89089 -13.4376 4
    endloop
  endfacet
  facet normal 0.382682 -0.92388 0
    outer loop
      vertex 6.04344 -12.9602 4
      vertex 4.89089 -13.4376 0
      vertex 6.04344 -12.9602 0
    endloop
  endfacet
  facet normal 0.92388 -0.382682 0
    outer loop
      vertex 12.9602 -6.04344 4
      vertex 13.4376 -4.89089 0
      vertex 13.4376 -4.89089 4
    endloop
  endfacet
  facet normal 0.92388 -0.382682 0
    outer loop
      vertex 13.4376 -4.89089 0
      vertex 12.9602 -6.04344 4
      vertex 12.9602 -6.04344 0
    endloop
  endfacet
  facet normal 0.976293 -0.216455 0
    outer loop
      vertex 13.8127 -3.70111 4
      vertex 14.079 -2.5 0
      vertex 14.079 -2.5 4
    endloop
  endfacet
  facet normal 0.976293 -0.216455 0
    outer loop
      vertex 14.079 -2.5 0
      vertex 13.8127 -3.70111 4
      vertex 13.8127 -3.70111 0
    endloop
  endfacet
  facet normal 0.887024 0.461724 0
    outer loop
      vertex 12.9602 6.04344 4
      vertex 12.3842 7.15 0
      vertex 12.3842 7.15 4
    endloop
  endfacet
  facet normal 0.887024 0.461724 0
    outer loop
      vertex 12.3842 7.15 0
      vertex 12.9602 6.04344 4
      vertex 12.9602 6.04344 0
    endloop
  endfacet
  facet normal -0.675596 0.737272 0
    outer loop
      vertex -9.19186 10.9544 0
      vertex -10.1116 10.1116 4
      vertex -9.19186 10.9544 4
    endloop
  endfacet
  facet normal -0.675596 0.737272 0
    outer loop
      vertex -10.1116 10.1116 4
      vertex -9.19186 10.9544 0
      vertex -10.1116 10.1116 0
    endloop
  endfacet
  facet normal 0.216455 -0.976293 0
    outer loop
      vertex 2.5 -14.079 0
      vertex 3.70111 -13.8127 4
      vertex 2.5 -14.079 4
    endloop
  endfacet
  facet normal 0.216455 -0.976293 0
    outer loop
      vertex 3.70111 -13.8127 4
      vertex 2.5 -14.079 0
      vertex 3.70111 -13.8127 0
    endloop
  endfacet
  facet normal 0.953725 -0.300679 0
    outer loop
      vertex 13.4376 -4.89089 4
      vertex 13.8127 -3.70111 0
      vertex 13.8127 -3.70111 4
    endloop
  endfacet
  facet normal 0.953725 -0.300679 0
    outer loop
      vertex 13.8127 -3.70111 0
      vertex 13.4376 -4.89089 4
      vertex 13.4376 -4.89089 0
    endloop
  endfacet
  facet normal 0.843387 -0.537307 0
    outer loop
      vertex 11.7139 -8.20214 4
      vertex 12.3842 -7.15 0
      vertex 12.3842 -7.15 4
    endloop
  endfacet
  facet normal 0.843387 -0.537307 0
    outer loop
      vertex 12.3842 -7.15 0
      vertex 11.7139 -8.20214 4
      vertex 11.7139 -8.20214 0
    endloop
  endfacet
  facet normal 0.461724 -0.887024 0
    outer loop
      vertex 6.04344 -12.9602 0
      vertex 7.15 -12.3842 4
      vertex 6.04344 -12.9602 4
    endloop
  endfacet
  facet normal 0.461724 -0.887024 0
    outer loop
      vertex 7.15 -12.3842 4
      vertex 6.04344 -12.9602 0
      vertex 7.15 -12.3842 0
    endloop
  endfacet
  facet normal -0.461724 -0.887024 0
    outer loop
      vertex -7.15 -12.3842 0
      vertex -6.04344 -12.9602 4
      vertex -7.15 -12.3842 4
    endloop
  endfacet
  facet normal -0.461724 -0.887024 -0
    outer loop
      vertex -6.04344 -12.9602 4
      vertex -7.15 -12.3842 0
      vertex -6.04344 -12.9602 0
    endloop
  endfacet
  facet normal -0.737272 0.675596 0
    outer loop
      vertex -10.9544 9.19186 0
      vertex -10.1116 10.1116 4
      vertex -10.1116 10.1116 0
    endloop
  endfacet
  facet normal -0.737272 0.675596 0
    outer loop
      vertex -10.1116 10.1116 4
      vertex -10.9544 9.19186 0
      vertex -10.9544 9.19186 4
    endloop
  endfacet
  facet normal -0.382682 -0.92388 0
    outer loop
      vertex -6.04344 -12.9602 0
      vertex -4.89089 -13.4376 4
      vertex -6.04344 -12.9602 4
    endloop
  endfacet
  facet normal -0.382682 -0.92388 -0
    outer loop
      vertex -4.89089 -13.4376 4
      vertex -6.04344 -12.9602 0
      vertex -4.89089 -13.4376 0
    endloop
  endfacet
  facet normal -0 0 1
    outer loop
      vertex 11.6231 -2.5 4
      vertex 13.8127 -3.70111 4
      vertex 14.079 -2.5 4
    endloop
  endfacet
  facet normal 0 0 1
    outer loop
      vertex 13.8127 -3.70111 4
      vertex 11.4945 -3.07995 4
      vertex 13.4376 -4.89089 4
    endloop
  endfacet
  facet normal 0 0 1
    outer loop
      vertex 13.4376 -4.89089 4
      vertex 11.1823 -4.07004 4
      vertex 12.9602 -6.04344 4
    endloop
  endfacet
  facet normal -0 0 1
    outer loop
      vertex 10.7851 -5.02916 4
      vertex 12.9602 -6.04344 4
      vertex 11.1823 -4.07004 4
    endloop
  endfacet
  facet normal 0 0 1
    outer loop
      vertex 13.8127 -3.70111 4
      vertex 11.6231 -2.5 4
      vertex 11.4945 -3.07995 4
    endloop
  endfacet
  facet normal 0 0 1
    outer loop
      vertex 13.4376 -4.89089 4
      vertex 11.4945 -3.07995 4
      vertex 11.1823 -4.07004 4
    endloop
  endfacet
  facet normal 0 0 1
    outer loop
      vertex 12.9602 -6.04344 4
      vertex 10.7851 -5.02916 4
      vertex 12.3842 -7.15 4
    endloop
  endfacet
  facet normal -0 0 1
    outer loop
      vertex 10.3057 -5.95 4
      vertex 12.3842 -7.15 4
      vertex 10.7851 -5.02916 4
    endloop
  endfacet
  facet normal 0 0 1
    outer loop
      vertex 12.3842 -7.15 4
      vertex 10.3057 -5.95 4
      vertex 11.7139 -8.20214 4
    endloop
  endfacet
  facet normal -0 0 1
    outer loop
      vertex 9.74791 -6.82556 4
      vertex 11.7139 -8.20214 4
      vertex 10.3057 -5.95 4
    endloop
  endfacet
  facet normal 0 0 1
    outer loop
      vertex 11.7139 -8.20214 4
      vertex 9.74791 -6.82556 4
      vertex 10.9544 -9.19186 4
    endloop
  endfacet
  facet normal -0 0 1
    outer loop
      vertex 9.11593 -7.64917 4
      vertex 10.9544 -9.19186 4
      vertex 9.74791 -6.82556 4
    endloop
  endfacet
  facet normal 0 0 1
    outer loop
      vertex 10.9544 -9.19186 4
      vertex 9.11593 -7.64917 4
      vertex 10.1116 -10.1116 4
    endloop
  endfacet
  facet normal -0 0 1
    outer loop
      vertex 8.41457 -8.41457 4
      vertex 10.1116 -10.1116 4
      vertex 9.11593 -7.64917 4
    endloop
  endfacet
  facet normal 0 0 1
    outer loop
      vertex 10.1116 -10.1116 4
      vertex 8.41457 -8.41457 4
      vertex 9.19186 -10.9544 4
    endloop
  endfacet
  facet normal -0 0 1
    outer loop
      vertex 7.64917 -9.11593 4
      vertex 9.19186 -10.9544 4
      vertex 8.41457 -8.41457 4
    endloop
  endfacet
  facet normal 0 0 1
    outer loop
      vertex 9.19186 -10.9544 4
      vertex 7.64917 -9.11593 4
      vertex 8.20214 -11.7139 4
    endloop
  endfacet
  facet normal -0 0 1
    outer loop
      vertex 6.82556 -9.74791 4
      vertex 8.20214 -11.7139 4
      vertex 7.64917 -9.11593 4
    endloop
  endfacet
  facet normal 0 0 1
    outer loop
      vertex 8.20214 -11.7139 4
      vertex 6.82556 -9.74791 4
      vertex 7.15 -12.3842 4
    endloop
  endfacet
  facet normal -0 0 1
    outer loop
      vertex 5.95 -10.3057 4
      vertex 7.15 -12.3842 4
      vertex 6.82556 -9.74791 4
    endloop
  endfacet
  facet normal 0 0 1
    outer loop
      vertex 7.15 -12.3842 4
      vertex 5.95 -10.3057 4
      vertex 6.04344 -12.9602 4
    endloop
  endfacet
  facet normal -0 0 1
    outer loop
      vertex 5.02916 -10.7851 4
      vertex 6.04344 -12.9602 4
      vertex 5.95 -10.3057 4
    endloop
  endfacet
  facet normal 0 0 1
    outer loop
      vertex 5.02916 -10.7851 4
      vertex 4.89089 -13.4376 4
      vertex 6.04344 -12.9602 4
    endloop
  endfacet
  facet normal -0 0 1
    outer loop
      vertex 4.07004 -11.1823 4
      vertex 4.89089 -13.4376 4
      vertex 5.02916 -10.7851 4
    endloop
  endfacet
  facet normal 0 0 1
    outer loop
      vertex 4.07004 -11.1823 4
      vertex 3.70111 -13.8127 4
      vertex 4.89089 -13.4376 4
    endloop
  endfacet
  facet normal -0 0 1
    outer loop
      vertex 3.07995 -11.4945 4
      vertex 3.70111 -13.8127 4
      vertex 4.07004 -11.1823 4
    endloop
  endfacet
  facet normal -0 0 1
    outer loop
      vertex 2.5 -11.6231 4
      vertex 3.70111 -13.8127 4
      vertex 3.07995 -11.4945 4
    endloop
  endfacet
  facet normal 0 0 1
    outer loop
      vertex 3.70111 -13.8127 4
      vertex 2.5 -11.6231 4
      vertex 2.5 -14.079 4
    endloop
  endfacet
  facet normal -0 0 1
    outer loop
      vertex -3.70111 13.8127 4
      vertex -2.5 11.6231 4
      vertex -2.5 14.079 4
    endloop
  endfacet
  facet normal 0 0 1
    outer loop
      vertex -2.5 11.6231 4
      vertex -3.70111 13.8127 4
      vertex -3.07995 11.4945 4
    endloop
  endfacet
  facet normal 0 0 1
    outer loop
      vertex -3.70111 13.8127 4
      vertex -4.07004 11.1823 4
      vertex -3.07995 11.4945 4
    endloop
  endfacet
  facet normal -0 0 1
    outer loop
      vertex -4.89089 13.4376 4
      vertex -4.07004 11.1823 4
      vertex -3.70111 13.8127 4
    endloop
  endfacet
  facet normal 0 0 1
    outer loop
      vertex -4.89089 13.4376 4
      vertex -5.02916 10.7851 4
      vertex -4.07004 11.1823 4
    endloop
  endfacet
  facet normal -0 0 1
    outer loop
      vertex -6.04344 12.9602 4
      vertex -5.02916 10.7851 4
      vertex -4.89089 13.4376 4
    endloop
  endfacet
  facet normal 0 0 1
    outer loop
      vertex -5.02916 10.7851 4
      vertex -6.04344 12.9602 4
      vertex -5.95 10.3057 4
    endloop
  endfacet
  facet normal -0 0 1
    outer loop
      vertex -7.15 12.3842 4
      vertex -5.95 10.3057 4
      vertex -6.04344 12.9602 4
    endloop
  endfacet
  facet normal 0 0 1
    outer loop
      vertex -5.95 10.3057 4
      vertex -7.15 12.3842 4
      vertex -6.82556 9.74791 4
    endloop
  endfacet
  facet normal -0 0 1
    outer loop
      vertex -8.20214 11.7139 4
      vertex -6.82556 9.74791 4
      vertex -7.15 12.3842 4
    endloop
  endfacet
  facet normal 0 0 1
    outer loop
      vertex -6.82556 9.74791 4
      vertex -8.20214 11.7139 4
      vertex -7.64917 9.11593 4
    endloop
  endfacet
  facet normal -0 0 1
    outer loop
      vertex -9.19186 10.9544 4
      vertex -7.64917 9.11593 4
      vertex -8.20214 11.7139 4
    endloop
  endfacet
  facet normal 0 0 1
    outer loop
      vertex -7.64917 9.11593 4
      vertex -9.19186 10.9544 4
      vertex -8.41457 8.41457 4
    endloop
  endfacet
  facet normal -0 0 1
    outer loop
      vertex -10.1116 10.1116 4
      vertex -8.41457 8.41457 4
      vertex -9.19186 10.9544 4
    endloop
  endfacet
  facet normal 0 0 1
    outer loop
      vertex -8.41457 8.41457 4
      vertex -10.1116 10.1116 4
      vertex -9.11593 7.64917 4
    endloop
  endfacet
  facet normal -0 0 1
    outer loop
      vertex -10.9544 9.19186 4
      vertex -9.11593 7.64917 4
      vertex -10.1116 10.1116 4
    endloop
  endfacet
  facet normal 0 0 1
    outer loop
      vertex -9.11593 7.64917 4
      vertex -10.9544 9.19186 4
      vertex -9.74791 6.82556 4
    endloop
  endfacet
  facet normal -0 0 1
    outer loop
      vertex -11.7139 8.20214 4
      vertex -9.74791 6.82556 4
      vertex -10.9544 9.19186 4
    endloop
  endfacet
  facet normal 0 0 1
    outer loop
      vertex -9.74791 6.82556 4
      vertex -11.7139 8.20214 4
      vertex -10.3057 5.95 4
    endloop
  endfacet
  facet normal -0 0 1
    outer loop
      vertex -12.3842 7.15 4
      vertex -10.3057 5.95 4
      vertex -11.7139 8.20214 4
    endloop
  endfacet
  facet normal 0 0 1
    outer loop
      vertex -10.3057 5.95 4
      vertex -12.3842 7.15 4
      vertex -10.7851 5.02916 4
    endloop
  endfacet
  facet normal -0 0 1
    outer loop
      vertex -12.9602 6.04344 4
      vertex -10.7851 5.02916 4
      vertex -12.3842 7.15 4
    endloop
  endfacet
  facet normal 0 0 1
    outer loop
      vertex -10.7851 5.02916 4
      vertex -12.9602 6.04344 4
      vertex -11.1823 4.07004 4
    endloop
  endfacet
  facet normal -0 0 1
    outer loop
      vertex -13.4376 4.89089 4
      vertex -11.1823 4.07004 4
      vertex -12.9602 6.04344 4
    endloop
  endfacet
  facet normal 0 0 1
    outer loop
      vertex -11.1823 4.07004 4
      vertex -13.4376 4.89089 4
      vertex -11.4945 3.07995 4
    endloop
  endfacet
  facet normal -0 0 1
    outer loop
      vertex -13.8127 3.70111 4
      vertex -11.4945 3.07995 4
      vertex -13.4376 4.89089 4
    endloop
  endfacet
  facet normal 0 0 1
    outer loop
      vertex -11.4945 3.07995 4
      vertex -13.8127 3.70111 4
      vertex -11.6231 2.5 4
    endloop
  endfacet
  facet normal 0 0 1
    outer loop
      vertex -11.6231 2.5 4
      vertex -13.8127 3.70111 4
      vertex -14.079 2.5 4
    endloop
  endfacet
  facet normal 0 0 1
    outer loop
      vertex 11.4945 3.07995 4
      vertex 13.8127 3.70111 4
      vertex 13.4376 4.89089 4
    endloop
  endfacet
  facet normal 0 0 1
    outer loop
      vertex 11.1823 4.07004 4
      vertex 13.4376 4.89089 4
      vertex 12.9602 6.04344 4
    endloop
  endfacet
  facet normal 0 0 1
    outer loop
      vertex 10.7851 5.02916 4
      vertex 12.9602 6.04344 4
      vertex 12.3842 7.15 4
    endloop
  endfacet
  facet normal 0 0 1
    outer loop
      vertex 10.3057 5.95 4
      vertex 12.3842 7.15 4
      vertex 11.7139 8.20214 4
    endloop
  endfacet
  facet normal 0 -0 1
    outer loop
      vertex 11.4945 3.07995 4
      vertex 13.4376 4.89089 4
      vertex 11.1823 4.07004 4
    endloop
  endfacet
  facet normal 0 0 1
    outer loop
      vertex 13.8127 3.70111 4
      vertex 11.6231 2.5 4
      vertex 14.079 2.5 4
    endloop
  endfacet
  facet normal 0 -0 1
    outer loop
      vertex 11.6231 2.5 4
      vertex 13.8127 3.70111 4
      vertex 11.4945 3.07995 4
    endloop
  endfacet
  facet normal 0 0 1
    outer loop
      vertex 9.74791 6.82556 4
      vertex 11.7139 8.20214 4
      vertex 10.9544 9.19186 4
    endloop
  endfacet
  facet normal 0 0 1
    outer loop
      vertex 12.9602 6.04344 4
      vertex 10.7851 5.02916 4
      vertex 11.1823 4.07004 4
    endloop
  endfacet
  facet normal 0 0 1
    outer loop
      vertex 12.3842 7.15 4
      vertex 10.3057 5.95 4
      vertex 10.7851 5.02916 4
    endloop
  endfacet
  facet normal 0 0 1
    outer loop
      vertex 9.11593 7.64917 4
      vertex 10.9544 9.19186 4
      vertex 10.1116 10.1116 4
    endloop
  endfacet
  facet normal 0 0 1
    outer loop
      vertex 11.7139 8.20214 4
      vertex 9.74791 6.82556 4
      vertex 10.3057 5.95 4
    endloop
  endfacet
  facet normal 0 0 1
    outer loop
      vertex 8.41457 8.41457 4
      vertex 10.1116 10.1116 4
      vertex 9.19186 10.9544 4
    endloop
  endfacet
  facet normal 0 0 1
    outer loop
      vertex 10.9544 9.19186 4
      vertex 9.11593 7.64917 4
      vertex 9.74791 6.82556 4
    endloop
  endfacet
  facet normal 0 0 1
    outer loop
      vertex 10.1116 10.1116 4
      vertex 8.41457 8.41457 4
      vertex 9.11593 7.64917 4
    endloop
  endfacet
  facet normal 0 0 1
    outer loop
      vertex 7.64917 9.11593 4
      vertex 9.19186 10.9544 4
      vertex 8.20214 11.7139 4
    endloop
  endfacet
  facet normal 0 0 1
    outer loop
      vertex 9.19186 10.9544 4
      vertex 7.64917 9.11593 4
      vertex 8.41457 8.41457 4
    endloop
  endfacet
  facet normal 0 0 1
    outer loop
      vertex 6.82556 9.74791 4
      vertex 8.20214 11.7139 4
      vertex 7.15 12.3842 4
    endloop
  endfacet
  facet normal 0 0 1
    outer loop
      vertex 8.20214 11.7139 4
      vertex 6.82556 9.74791 4
      vertex 7.64917 9.11593 4
    endloop
  endfacet
  facet normal 0 0 1
    outer loop
      vertex 5.95 10.3057 4
      vertex 7.15 12.3842 4
      vertex 6.04344 12.9602 4
    endloop
  endfacet
  facet normal 0 0 1
    outer loop
      vertex 7.15 12.3842 4
      vertex 5.95 10.3057 4
      vertex 6.82556 9.74791 4
    endloop
  endfacet
  facet normal 0 0 1
    outer loop
      vertex 6.04344 12.9602 4
      vertex 5.02916 10.7851 4
      vertex 5.95 10.3057 4
    endloop
  endfacet
  facet normal 0 0 1
    outer loop
      vertex 4.89089 13.4376 4
      vertex 5.02916 10.7851 4
      vertex 6.04344 12.9602 4
    endloop
  endfacet
  facet normal 0 0 1
    outer loop
      vertex 4.89089 13.4376 4
      vertex 4.07004 11.1823 4
      vertex 5.02916 10.7851 4
    endloop
  endfacet
  facet normal 0 0 1
    outer loop
      vertex 3.70111 13.8127 4
      vertex 4.07004 11.1823 4
      vertex 4.89089 13.4376 4
    endloop
  endfacet
  facet normal 0 0 1
    outer loop
      vertex 3.70111 13.8127 4
      vertex 3.07995 11.4945 4
      vertex 4.07004 11.1823 4
    endloop
  endfacet
  facet normal 0 0 1
    outer loop
      vertex 2.5 11.6231 4
      vertex 3.70111 13.8127 4
      vertex 2.5 14.079 4
    endloop
  endfacet
  facet normal 0 0 1
    outer loop
      vertex 3.70111 13.8127 4
      vertex 2.5 11.6231 4
      vertex 3.07995 11.4945 4
    endloop
  endfacet
  facet normal 0 0 1
    outer loop
      vertex -3.70111 -13.8127 4
      vertex -2.5 -11.6231 4
      vertex -3.07995 -11.4945 4
    endloop
  endfacet
  facet normal 0 0 1
    outer loop
      vertex -2.5 -11.6231 4
      vertex -3.70111 -13.8127 4
      vertex -2.5 -14.079 4
    endloop
  endfacet
  facet normal 0 0 1
    outer loop
      vertex -4.07004 -11.1823 4
      vertex -3.70111 -13.8127 4
      vertex -3.07995 -11.4945 4
    endloop
  endfacet
  facet normal 0 0 1
    outer loop
      vertex -4.07004 -11.1823 4
      vertex -4.89089 -13.4376 4
      vertex -3.70111 -13.8127 4
    endloop
  endfacet
  facet normal 0 0 1
    outer loop
      vertex -5.02916 -10.7851 4
      vertex -4.89089 -13.4376 4
      vertex -4.07004 -11.1823 4
    endloop
  endfacet
  facet normal 0 0 1
    outer loop
      vertex -6.04344 -12.9602 4
      vertex -5.02916 -10.7851 4
      vertex -5.95 -10.3057 4
    endloop
  endfacet
  facet normal 0 0 1
    outer loop
      vertex -5.02916 -10.7851 4
      vertex -6.04344 -12.9602 4
      vertex -4.89089 -13.4376 4
    endloop
  endfacet
  facet normal 0 0 1
    outer loop
      vertex -7.15 -12.3842 4
      vertex -5.95 -10.3057 4
      vertex -6.82556 -9.74791 4
    endloop
  endfacet
  facet normal 0 0 1
    outer loop
      vertex -5.95 -10.3057 4
      vertex -7.15 -12.3842 4
      vertex -6.04344 -12.9602 4
    endloop
  endfacet
  facet normal 0 0 1
    outer loop
      vertex -8.20214 -11.7139 4
      vertex -6.82556 -9.74791 4
      vertex -7.64917 -9.11593 4
    endloop
  endfacet
  facet normal 0 0 1
    outer loop
      vertex -6.82556 -9.74791 4
      vertex -8.20214 -11.7139 4
      vertex -7.15 -12.3842 4
    endloop
  endfacet
  facet normal 0 0 1
    outer loop
      vertex -9.19186 -10.9544 4
      vertex -7.64917 -9.11593 4
      vertex -8.41457 -8.41457 4
    endloop
  endfacet
  facet normal 0 0 1
    outer loop
      vertex -10.1116 -10.1116 4
      vertex -8.41457 -8.41457 4
      vertex -9.11593 -7.64917 4
    endloop
  endfacet
  facet normal 0 0 1
    outer loop
      vertex -7.64917 -9.11593 4
      vertex -9.19186 -10.9544 4
      vertex -8.20214 -11.7139 4
    endloop
  endfacet
  facet normal 0 0 1
    outer loop
      vertex -10.9544 -9.19186 4
      vertex -9.11593 -7.64917 4
      vertex -9.74791 -6.82556 4
    endloop
  endfacet
  facet normal 0 0 1
    outer loop
      vertex -8.41457 -8.41457 4
      vertex -10.1116 -10.1116 4
      vertex -9.19186 -10.9544 4
    endloop
  endfacet
  facet normal 0 0 1
    outer loop
      vertex -11.7139 -8.20214 4
      vertex -9.74791 -6.82556 4
      vertex -10.3057 -5.95 4
    endloop
  endfacet
  facet normal 0 0 1
    outer loop
      vertex -12.3842 -7.15 4
      vertex -10.3057 -5.95 4
      vertex -10.7851 -5.02916 4
    endloop
  endfacet
  facet normal 0 0 1
    outer loop
      vertex -9.11593 -7.64917 4
      vertex -10.9544 -9.19186 4
      vertex -10.1116 -10.1116 4
    endloop
  endfacet
  facet normal 0 0 1
    outer loop
      vertex -12.9602 -6.04344 4
      vertex -10.7851 -5.02916 4
      vertex -11.1823 -4.07004 4
    endloop
  endfacet
  facet normal 0 0 1
    outer loop
      vertex -13.4376 -4.89089 4
      vertex -11.1823 -4.07004 4
      vertex -11.4945 -3.07995 4
    endloop
  endfacet
  facet normal 0 0 1
    outer loop
      vertex -13.8127 -3.70111 4
      vertex -11.4945 -3.07995 4
      vertex -11.6231 -2.5 4
    endloop
  endfacet
  facet normal 0 0 1
    outer loop
      vertex -9.74791 -6.82556 4
      vertex -11.7139 -8.20214 4
      vertex -10.9544 -9.19186 4
    endloop
  endfacet
  facet normal 0 0 1
    outer loop
      vertex -10.3057 -5.95 4
      vertex -12.3842 -7.15 4
      vertex -11.7139 -8.20214 4
    endloop
  endfacet
  facet normal 0 0 1
    outer loop
      vertex -10.7851 -5.02916 4
      vertex -12.9602 -6.04344 4
      vertex -12.3842 -7.15 4
    endloop
  endfacet
  facet normal 0 0 1
    outer loop
      vertex -11.1823 -4.07004 4
      vertex -13.4376 -4.89089 4
      vertex -12.9602 -6.04344 4
    endloop
  endfacet
  facet normal 0 0 1
    outer loop
      vertex -11.4945 -3.07995 4
      vertex -13.8127 -3.70111 4
      vertex -13.4376 -4.89089 4
    endloop
  endfacet
  facet normal 0 -0 1
    outer loop
      vertex -13.8127 -3.70111 4
      vertex -11.6231 -2.5 4
      vertex -14.079 -2.5 4
    endloop
  endfacet
  facet normal 0.216455 0.976293 -0
    outer loop
      vertex 3.70111 13.8127 0
      vertex 2.5 14.079 4
      vertex 3.70111 13.8127 4
    endloop
  endfacet
  facet normal 0.216455 0.976293 0
    outer loop
      vertex 2.5 14.079 4
      vertex 3.70111 13.8127 0
      vertex 2.5 14.079 0
    endloop
  endfacet
  facet normal 0.737272 -0.675596 0
    outer loop
      vertex 10.1116 -10.1116 4
      vertex 10.9544 -9.19186 0
      vertex 10.9544 -9.19186 4
    endloop
  endfacet
  facet normal 0.737272 -0.675596 0
    outer loop
      vertex 10.9544 -9.19186 0
      vertex 10.1116 -10.1116 4
      vertex 10.1116 -10.1116 0
    endloop
  endfacet
  facet normal 0.675596 -0.737272 0
    outer loop
      vertex 9.19186 -10.9544 0
      vertex 10.1116 -10.1116 4
      vertex 9.19186 -10.9544 4
    endloop
  endfacet
  facet normal 0.675596 -0.737272 0
    outer loop
      vertex 10.1116 -10.1116 4
      vertex 9.19186 -10.9544 0
      vertex 10.1116 -10.1116 0
    endloop
  endfacet
  facet normal 0 0 -1
    outer loop
      vertex 11.4945 -3.07995 0
      vertex 13.8127 -3.70111 0
      vertex 13.4376 -4.89089 0
    endloop
  endfacet
  facet normal 0 0 -1
    outer loop
      vertex 11.1823 -4.07004 0
      vertex 13.4376 -4.89089 0
      vertex 12.9602 -6.04344 0
    endloop
  endfacet
  facet normal 0 0 -1
    outer loop
      vertex 10.7851 -5.02916 0
      vertex 12.9602 -6.04344 0
      vertex 12.3842 -7.15 0
    endloop
  endfacet
  facet normal 0 0 -1
    outer loop
      vertex 10.3057 -5.95 0
      vertex 12.3842 -7.15 0
      vertex 11.7139 -8.20214 0
    endloop
  endfacet
  facet normal 0 -0 -1
    outer loop
      vertex 11.4945 -3.07995 0
      vertex 13.4376 -4.89089 0
      vertex 11.1823 -4.07004 0
    endloop
  endfacet
  facet normal 0 0 -1
    outer loop
      vertex 13.8127 -3.70111 0
      vertex 11.6231 -2.5 0
      vertex 14.079 -2.5 0
    endloop
  endfacet
  facet normal 0 -0 -1
    outer loop
      vertex 11.6231 -2.5 0
      vertex 13.8127 -3.70111 0
      vertex 11.4945 -3.07995 0
    endloop
  endfacet
  facet normal 0 0 -1
    outer loop
      vertex 9.74791 -6.82556 0
      vertex 11.7139 -8.20214 0
      vertex 10.9544 -9.19186 0
    endloop
  endfacet
  facet normal 0 0 -1
    outer loop
      vertex 12.9602 -6.04344 0
      vertex 10.7851 -5.02916 0
      vertex 11.1823 -4.07004 0
    endloop
  endfacet
  facet normal 0 0 -1
    outer loop
      vertex 12.3842 -7.15 0
      vertex 10.3057 -5.95 0
      vertex 10.7851 -5.02916 0
    endloop
  endfacet
  facet normal 0 0 -1
    outer loop
      vertex 9.11593 -7.64917 0
      vertex 10.9544 -9.19186 0
      vertex 10.1116 -10.1116 0
    endloop
  endfacet
  facet normal 0 0 -1
    outer loop
      vertex 11.7139 -8.20214 0
      vertex 9.74791 -6.82556 0
      vertex 10.3057 -5.95 0
    endloop
  endfacet
  facet normal 0 0 -1
    outer loop
      vertex 8.41457 -8.41457 0
      vertex 10.1116 -10.1116 0
      vertex 9.19186 -10.9544 0
    endloop
  endfacet
  facet normal 0 0 -1
    outer loop
      vertex 10.9544 -9.19186 0
      vertex 9.11593 -7.64917 0
      vertex 9.74791 -6.82556 0
    endloop
  endfacet
  facet normal 0 0 -1
    outer loop
      vertex 10.1116 -10.1116 0
      vertex 8.41457 -8.41457 0
      vertex 9.11593 -7.64917 0
    endloop
  endfacet
  facet normal 0 0 -1
    outer loop
      vertex 7.64917 -9.11593 0
      vertex 9.19186 -10.9544 0
      vertex 8.20214 -11.7139 0
    endloop
  endfacet
  facet normal 0 0 -1
    outer loop
      vertex 9.19186 -10.9544 0
      vertex 7.64917 -9.11593 0
      vertex 8.41457 -8.41457 0
    endloop
  endfacet
  facet normal 0 0 -1
    outer loop
      vertex 6.82556 -9.74791 0
      vertex 8.20214 -11.7139 0
      vertex 7.15 -12.3842 0
    endloop
  endfacet
  facet normal 0 0 -1
    outer loop
      vertex 8.20214 -11.7139 0
      vertex 6.82556 -9.74791 0
      vertex 7.64917 -9.11593 0
    endloop
  endfacet
  facet normal 0 0 -1
    outer loop
      vertex 5.95 -10.3057 0
      vertex 7.15 -12.3842 0
      vertex 6.04344 -12.9602 0
    endloop
  endfacet
  facet normal 0 0 -1
    outer loop
      vertex 7.15 -12.3842 0
      vertex 5.95 -10.3057 0
      vertex 6.82556 -9.74791 0
    endloop
  endfacet
  facet normal 0 0 -1
    outer loop
      vertex 6.04344 -12.9602 0
      vertex 5.02916 -10.7851 0
      vertex 5.95 -10.3057 0
    endloop
  endfacet
  facet normal 0 0 -1
    outer loop
      vertex 4.89089 -13.4376 0
      vertex 5.02916 -10.7851 0
      vertex 6.04344 -12.9602 0
    endloop
  endfacet
  facet normal 0 0 -1
    outer loop
      vertex 4.89089 -13.4376 0
      vertex 4.07004 -11.1823 0
      vertex 5.02916 -10.7851 0
    endloop
  endfacet
  facet normal 0 0 -1
    outer loop
      vertex 3.70111 -13.8127 0
      vertex 4.07004 -11.1823 0
      vertex 4.89089 -13.4376 0
    endloop
  endfacet
  facet normal 0 0 -1
    outer loop
      vertex 3.70111 -13.8127 0
      vertex 3.07995 -11.4945 0
      vertex 4.07004 -11.1823 0
    endloop
  endfacet
  facet normal 0 0 -1
    outer loop
      vertex 2.5 -11.6231 0
      vertex 3.70111 -13.8127 0
      vertex 2.5 -14.079 0
    endloop
  endfacet
  facet normal 0 0 -1
    outer loop
      vertex 3.70111 -13.8127 0
      vertex 2.5 -11.6231 0
      vertex 3.07995 -11.4945 0
    endloop
  endfacet
  facet normal 0 0 -1
    outer loop
      vertex -3.70111 13.8127 0
      vertex -2.5 11.6231 0
      vertex -3.07995 11.4945 0
    endloop
  endfacet
  facet normal 0 0 -1
    outer loop
      vertex -2.5 11.6231 0
      vertex -3.70111 13.8127 0
      vertex -2.5 14.079 0
    endloop
  endfacet
  facet normal 0 0 -1
    outer loop
      vertex -4.07004 11.1823 0
      vertex -3.70111 13.8127 0
      vertex -3.07995 11.4945 0
    endloop
  endfacet
  facet normal 0 0 -1
    outer loop
      vertex -4.07004 11.1823 0
      vertex -4.89089 13.4376 0
      vertex -3.70111 13.8127 0
    endloop
  endfacet
  facet normal 0 0 -1
    outer loop
      vertex -5.02916 10.7851 0
      vertex -4.89089 13.4376 0
      vertex -4.07004 11.1823 0
    endloop
  endfacet
  facet normal 0 0 -1
    outer loop
      vertex -6.04344 12.9602 0
      vertex -5.02916 10.7851 0
      vertex -5.95 10.3057 0
    endloop
  endfacet
  facet normal 0 0 -1
    outer loop
      vertex -5.02916 10.7851 0
      vertex -6.04344 12.9602 0
      vertex -4.89089 13.4376 0
    endloop
  endfacet
  facet normal 0 0 -1
    outer loop
      vertex -7.15 12.3842 0
      vertex -5.95 10.3057 0
      vertex -6.82556 9.74791 0
    endloop
  endfacet
  facet normal 0 0 -1
    outer loop
      vertex -5.95 10.3057 0
      vertex -7.15 12.3842 0
      vertex -6.04344 12.9602 0
    endloop
  endfacet
  facet normal 0 0 -1
    outer loop
      vertex -8.20214 11.7139 0
      vertex -6.82556 9.74791 0
      vertex -7.64917 9.11593 0
    endloop
  endfacet
  facet normal 0 0 -1
    outer loop
      vertex -6.82556 9.74791 0
      vertex -8.20214 11.7139 0
      vertex -7.15 12.3842 0
    endloop
  endfacet
  facet normal 0 0 -1
    outer loop
      vertex -9.19186 10.9544 0
      vertex -7.64917 9.11593 0
      vertex -8.41457 8.41457 0
    endloop
  endfacet
  facet normal 0 0 -1
    outer loop
      vertex -10.1116 10.1116 0
      vertex -8.41457 8.41457 0
      vertex -9.11593 7.64917 0
    endloop
  endfacet
  facet normal 0 0 -1
    outer loop
      vertex -7.64917 9.11593 0
      vertex -9.19186 10.9544 0
      vertex -8.20214 11.7139 0
    endloop
  endfacet
  facet normal 0 0 -1
    outer loop
      vertex -10.9544 9.19186 0
      vertex -9.11593 7.64917 0
      vertex -9.74791 6.82556 0
    endloop
  endfacet
  facet normal 0 0 -1
    outer loop
      vertex -8.41457 8.41457 0
      vertex -10.1116 10.1116 0
      vertex -9.19186 10.9544 0
    endloop
  endfacet
  facet normal 0 0 -1
    outer loop
      vertex -11.7139 8.20214 0
      vertex -9.74791 6.82556 0
      vertex -10.3057 5.95 0
    endloop
  endfacet
  facet normal 0 0 -1
    outer loop
      vertex -12.3842 7.15 0
      vertex -10.3057 5.95 0
      vertex -10.7851 5.02916 0
    endloop
  endfacet
  facet normal 0 0 -1
    outer loop
      vertex -9.11593 7.64917 0
      vertex -10.9544 9.19186 0
      vertex -10.1116 10.1116 0
    endloop
  endfacet
  facet normal 0 0 -1
    outer loop
      vertex -12.9602 6.04344 0
      vertex -10.7851 5.02916 0
      vertex -11.1823 4.07004 0
    endloop
  endfacet
  facet normal 0 0 -1
    outer loop
      vertex -13.4376 4.89089 0
      vertex -11.1823 4.07004 0
      vertex -11.4945 3.07995 0
    endloop
  endfacet
  facet normal 0 0 -1
    outer loop
      vertex -13.8127 3.70111 0
      vertex -11.4945 3.07995 0
      vertex -11.6231 2.5 0
    endloop
  endfacet
  facet normal 0 0 -1
    outer loop
      vertex -9.74791 6.82556 0
      vertex -11.7139 8.20214 0
      vertex -10.9544 9.19186 0
    endloop
  endfacet
  facet normal 0 0 -1
    outer loop
      vertex -10.3057 5.95 0
      vertex -12.3842 7.15 0
      vertex -11.7139 8.20214 0
    endloop
  endfacet
  facet normal 0 0 -1
    outer loop
      vertex -10.7851 5.02916 0
      vertex -12.9602 6.04344 0
      vertex -12.3842 7.15 0
    endloop
  endfacet
  facet normal 0 0 -1
    outer loop
      vertex -11.1823 4.07004 0
      vertex -13.4376 4.89089 0
      vertex -12.9602 6.04344 0
    endloop
  endfacet
  facet normal 0 0 -1
    outer loop
      vertex -11.4945 3.07995 0
      vertex -13.8127 3.70111 0
      vertex -13.4376 4.89089 0
    endloop
  endfacet
  facet normal 0 -0 -1
    outer loop
      vertex -13.8127 3.70111 0
      vertex -11.6231 2.5 0
      vertex -14.079 2.5 0
    endloop
  endfacet
  facet normal 0 0 -1
    outer loop
      vertex 11.6231 2.5 0
      vertex 13.8127 3.70111 0
      vertex 14.079 2.5 0
    endloop
  endfacet
  facet normal -0 0 -1
    outer loop
      vertex 13.8127 3.70111 0
      vertex 11.4945 3.07995 0
      vertex 13.4376 4.89089 0
    endloop
  endfacet
  facet normal -0 0 -1
    outer loop
      vertex 13.4376 4.89089 0
      vertex 11.1823 4.07004 0
      vertex 12.9602 6.04344 0
    endloop
  endfacet
  facet normal 0 0 -1
    outer loop
      vertex 10.7851 5.02916 0
      vertex 12.9602 6.04344 0
      vertex 11.1823 4.07004 0
    endloop
  endfacet
  facet normal 0 0 -1
    outer loop
      vertex 13.8127 3.70111 0
      vertex 11.6231 2.5 0
      vertex 11.4945 3.07995 0
    endloop
  endfacet
  facet normal 0 0 -1
    outer loop
      vertex 13.4376 4.89089 0
      vertex 11.4945 3.07995 0
      vertex 11.1823 4.07004 0
    endloop
  endfacet
  facet normal -0 0 -1
    outer loop
      vertex 12.9602 6.04344 0
      vertex 10.7851 5.02916 0
      vertex 12.3842 7.15 0
    endloop
  endfacet
  facet normal 0 0 -1
    outer loop
      vertex 10.3057 5.95 0
      vertex 12.3842 7.15 0
      vertex 10.7851 5.02916 0
    endloop
  endfacet
  facet normal -0 0 -1
    outer loop
      vertex 12.3842 7.15 0
      vertex 10.3057 5.95 0
      vertex 11.7139 8.20214 0
    endloop
  endfacet
  facet normal 0 0 -1
    outer loop
      vertex 9.74791 6.82556 0
      vertex 11.7139 8.20214 0
      vertex 10.3057 5.95 0
    endloop
  endfacet
  facet normal -0 0 -1
    outer loop
      vertex 11.7139 8.20214 0
      vertex 9.74791 6.82556 0
      vertex 10.9544 9.19186 0
    endloop
  endfacet
  facet normal 0 0 -1
    outer loop
      vertex 9.11593 7.64917 0
      vertex 10.9544 9.19186 0
      vertex 9.74791 6.82556 0
    endloop
  endfacet
  facet normal -0 0 -1
    outer loop
      vertex 10.9544 9.19186 0
      vertex 9.11593 7.64917 0
      vertex 10.1116 10.1116 0
    endloop
  endfacet
  facet normal 0 0 -1
    outer loop
      vertex 8.41457 8.41457 0
      vertex 10.1116 10.1116 0
      vertex 9.11593 7.64917 0
    endloop
  endfacet
  facet normal -0 0 -1
    outer loop
      vertex 10.1116 10.1116 0
      vertex 8.41457 8.41457 0
      vertex 9.19186 10.9544 0
    endloop
  endfacet
  facet normal 0 0 -1
    outer loop
      vertex 7.64917 9.11593 0
      vertex 9.19186 10.9544 0
      vertex 8.41457 8.41457 0
    endloop
  endfacet
  facet normal -0 0 -1
    outer loop
      vertex 9.19186 10.9544 0
      vertex 7.64917 9.11593 0
      vertex 8.20214 11.7139 0
    endloop
  endfacet
  facet normal 0 0 -1
    outer loop
      vertex 6.82556 9.74791 0
      vertex 8.20214 11.7139 0
      vertex 7.64917 9.11593 0
    endloop
  endfacet
  facet normal -0 0 -1
    outer loop
      vertex 8.20214 11.7139 0
      vertex 6.82556 9.74791 0
      vertex 7.15 12.3842 0
    endloop
  endfacet
  facet normal 0 0 -1
    outer loop
      vertex 5.95 10.3057 0
      vertex 7.15 12.3842 0
      vertex 6.82556 9.74791 0
    endloop
  endfacet
  facet normal -0 0 -1
    outer loop
      vertex 7.15 12.3842 0
      vertex 5.95 10.3057 0
      vertex 6.04344 12.9602 0
    endloop
  endfacet
  facet normal 0 0 -1
    outer loop
      vertex 5.02916 10.7851 0
      vertex 6.04344 12.9602 0
      vertex 5.95 10.3057 0
    endloop
  endfacet
  facet normal 0 0 -1
    outer loop
      vertex 5.02916 10.7851 0
      vertex 4.89089 13.4376 0
      vertex 6.04344 12.9602 0
    endloop
  endfacet
  facet normal 0 0 -1
    outer loop
      vertex 4.07004 11.1823 0
      vertex 4.89089 13.4376 0
      vertex 5.02916 10.7851 0
    endloop
  endfacet
  facet normal 0 0 -1
    outer loop
      vertex 4.07004 11.1823 0
      vertex 3.70111 13.8127 0
      vertex 4.89089 13.4376 0
    endloop
  endfacet
  facet normal 0 0 -1
    outer loop
      vertex 3.07995 11.4945 0
      vertex 3.70111 13.8127 0
      vertex 4.07004 11.1823 0
    endloop
  endfacet
  facet normal 0 0 -1
    outer loop
      vertex 2.5 11.6231 0
      vertex 3.70111 13.8127 0
      vertex 3.07995 11.4945 0
    endloop
  endfacet
  facet normal -0 0 -1
    outer loop
      vertex 3.70111 13.8127 0
      vertex 2.5 11.6231 0
      vertex 2.5 14.079 0
    endloop
  endfacet
  facet normal 0 0 -1
    outer loop
      vertex -3.70111 -13.8127 0
      vertex -2.5 -11.6231 0
      vertex -2.5 -14.079 0
    endloop
  endfacet
  facet normal -0 0 -1
    outer loop
      vertex -2.5 -11.6231 0
      vertex -3.70111 -13.8127 0
      vertex -3.07995 -11.4945 0
    endloop
  endfacet
  facet normal 0 0 -1
    outer loop
      vertex -3.70111 -13.8127 0
      vertex -4.07004 -11.1823 0
      vertex -3.07995 -11.4945 0
    endloop
  endfacet
  facet normal 0 0 -1
    outer loop
      vertex -4.89089 -13.4376 0
      vertex -4.07004 -11.1823 0
      vertex -3.70111 -13.8127 0
    endloop
  endfacet
  facet normal 0 0 -1
    outer loop
      vertex -4.89089 -13.4376 0
      vertex -5.02916 -10.7851 0
      vertex -4.07004 -11.1823 0
    endloop
  endfacet
  facet normal 0 0 -1
    outer loop
      vertex -6.04344 -12.9602 0
      vertex -5.02916 -10.7851 0
      vertex -4.89089 -13.4376 0
    endloop
  endfacet
  facet normal -0 0 -1
    outer loop
      vertex -5.02916 -10.7851 0
      vertex -6.04344 -12.9602 0
      vertex -5.95 -10.3057 0
    endloop
  endfacet
  facet normal 0 0 -1
    outer loop
      vertex -7.15 -12.3842 0
      vertex -5.95 -10.3057 0
      vertex -6.04344 -12.9602 0
    endloop
  endfacet
  facet normal -0 0 -1
    outer loop
      vertex -5.95 -10.3057 0
      vertex -7.15 -12.3842 0
      vertex -6.82556 -9.74791 0
    endloop
  endfacet
  facet normal 0 0 -1
    outer loop
      vertex -8.20214 -11.7139 0
      vertex -6.82556 -9.74791 0
      vertex -7.15 -12.3842 0
    endloop
  endfacet
  facet normal -0 0 -1
    outer loop
      vertex -6.82556 -9.74791 0
      vertex -8.20214 -11.7139 0
      vertex -7.64917 -9.11593 0
    endloop
  endfacet
  facet normal 0 0 -1
    outer loop
      vertex -9.19186 -10.9544 0
      vertex -7.64917 -9.11593 0
      vertex -8.20214 -11.7139 0
    endloop
  endfacet
  facet normal -0 0 -1
    outer loop
      vertex -7.64917 -9.11593 0
      vertex -9.19186 -10.9544 0
      vertex -8.41457 -8.41457 0
    endloop
  endfacet
  facet normal 0 0 -1
    outer loop
      vertex -10.1116 -10.1116 0
      vertex -8.41457 -8.41457 0
      vertex -9.19186 -10.9544 0
    endloop
  endfacet
  facet normal -0 0 -1
    outer loop
      vertex -8.41457 -8.41457 0
      vertex -10.1116 -10.1116 0
      vertex -9.11593 -7.64917 0
    endloop
  endfacet
  facet normal 0 0 -1
    outer loop
      vertex -10.9544 -9.19186 0
      vertex -9.11593 -7.64917 0
      vertex -10.1116 -10.1116 0
    endloop
  endfacet
  facet normal -0 0 -1
    outer loop
      vertex -9.11593 -7.64917 0
      vertex -10.9544 -9.19186 0
      vertex -9.74791 -6.82556 0
    endloop
  endfacet
  facet normal 0 0 -1
    outer loop
      vertex -11.7139 -8.20214 0
      vertex -9.74791 -6.82556 0
      vertex -10.9544 -9.19186 0
    endloop
  endfacet
  facet normal -0 0 -1
    outer loop
      vertex -9.74791 -6.82556 0
      vertex -11.7139 -8.20214 0
      vertex -10.3057 -5.95 0
    endloop
  endfacet
  facet normal 0 0 -1
    outer loop
      vertex -12.3842 -7.15 0
      vertex -10.3057 -5.95 0
      vertex -11.7139 -8.20214 0
    endloop
  endfacet
  facet normal -0 0 -1
    outer loop
      vertex -10.3057 -5.95 0
      vertex -12.3842 -7.15 0
      vertex -10.7851 -5.02916 0
    endloop
  endfacet
  facet normal 0 0 -1
    outer loop
      vertex -12.9602 -6.04344 0
      vertex -10.7851 -5.02916 0
      vertex -12.3842 -7.15 0
    endloop
  endfacet
  facet normal -0 0 -1
    outer loop
      vertex -10.7851 -5.02916 0
      vertex -12.9602 -6.04344 0
      vertex -11.1823 -4.07004 0
    endloop
  endfacet
  facet normal 0 0 -1
    outer loop
      vertex -13.4376 -4.89089 0
      vertex -11.1823 -4.07004 0
      vertex -12.9602 -6.04344 0
    endloop
  endfacet
  facet normal -0 0 -1
    outer loop
      vertex -11.1823 -4.07004 0
      vertex -13.4376 -4.89089 0
      vertex -11.4945 -3.07995 0
    endloop
  endfacet
  facet normal 0 0 -1
    outer loop
      vertex -13.8127 -3.70111 0
      vertex -11.4945 -3.07995 0
      vertex -13.4376 -4.89089 0
    endloop
  endfacet
  facet normal -0 0 -1
    outer loop
      vertex -11.4945 -3.07995 0
      vertex -13.8127 -3.70111 0
      vertex -11.6231 -2.5 0
    endloop
  endfacet
  facet normal -0 0 -1
    outer loop
      vertex -11.6231 -2.5 0
      vertex -13.8127 -3.70111 0
      vertex -14.079 -2.5 0
    endloop
  endfacet
  facet normal -0.537307 -0.843387 0
    outer loop
      vertex -8.20214 -11.7139 0
      vertex -7.15 -12.3842 4
      vertex -8.20214 -11.7139 4
    endloop
  endfacet
  facet normal -0.537307 -0.843387 -0
    outer loop
      vertex -7.15 -12.3842 4
      vertex -8.20214 -11.7139 0
      vertex -7.15 -12.3842 0
    endloop
  endfacet
  facet normal -0.887024 -0.461724 0
    outer loop
      vertex -12.3842 -7.15 0
      vertex -12.9602 -6.04344 4
      vertex -12.9602 -6.04344 0
    endloop
  endfacet
  facet normal -0.887024 -0.461724 0
    outer loop
      vertex -12.9602 -6.04344 4
      vertex -12.3842 -7.15 0
      vertex -12.3842 -7.15 4
    endloop
  endfacet
  facet normal -0.216455 -0.976293 0
    outer loop
      vertex -3.70111 -13.8127 0
      vertex -2.5 -14.079 4
      vertex -3.70111 -13.8127 4
    endloop
  endfacet
  facet normal -0.216455 -0.976293 -0
    outer loop
      vertex -2.5 -14.079 4
      vertex -3.70111 -13.8127 0
      vertex -2.5 -14.079 0
    endloop
  endfacet
  facet normal -0.887024 0.461724 0
    outer loop
      vertex -12.9602 6.04344 0
      vertex -12.3842 7.15 4
      vertex -12.3842 7.15 0
    endloop
  endfacet
  facet normal -0.887024 0.461724 0
    outer loop
      vertex -12.3842 7.15 4
      vertex -12.9602 6.04344 0
      vertex -12.9602 6.04344 4
    endloop
  endfacet
  facet normal -0.675596 -0.737272 0
    outer loop
      vertex -10.1116 -10.1116 0
      vertex -9.19186 -10.9544 4
      vertex -10.1116 -10.1116 4
    endloop
  endfacet
  facet normal -0.675596 -0.737272 -0
    outer loop
      vertex -9.19186 -10.9544 4
      vertex -10.1116 -10.1116 0
      vertex -9.19186 -10.9544 0
    endloop
  endfacet
  facet normal -0.976293 0.216455 0
    outer loop
      vertex -14.079 2.5 0
      vertex -13.8127 3.70111 4
      vertex -13.8127 3.70111 0
    endloop
  endfacet
  facet normal -0.976293 0.216455 0
    outer loop
      vertex -13.8127 3.70111 4
      vertex -14.079 2.5 0
      vertex -14.079 2.5 4
    endloop
  endfacet
  facet normal -0.976286 -0.216485 0
    outer loop
      vertex 11.6231 2.5 0
      vertex 11.4945 3.07995 4
      vertex 11.4945 3.07995 0
    endloop
  endfacet
  facet normal -0.976286 -0.216485 0
    outer loop
      vertex 11.4945 3.07995 4
      vertex 11.6231 2.5 0
      vertex 11.6231 2.5 4
    endloop
  endfacet
  facet normal 0.67559 0.737277 -0
    outer loop
      vertex -7.64917 -9.11593 0
      vertex -8.41457 -8.41457 4
      vertex -7.64917 -9.11593 4
    endloop
  endfacet
  facet normal 0.67559 0.737277 0
    outer loop
      vertex -8.41457 -8.41457 4
      vertex -7.64917 -9.11593 0
      vertex -8.41457 -8.41457 0
    endloop
  endfacet
  facet normal -0.382617 -0.923907 0
    outer loop
      vertex 4.07004 11.1823 0
      vertex 5.02916 10.7851 4
      vertex 4.07004 11.1823 4
    endloop
  endfacet
  facet normal -0.382617 -0.923907 -0
    outer loop
      vertex 5.02916 10.7851 4
      vertex 4.07004 11.1823 0
      vertex 5.02916 10.7851 0
    endloop
  endfacet
  facet normal 0.95371 0.300728 0
    outer loop
      vertex -11.1823 -4.07004 4
      vertex -11.4945 -3.07995 0
      vertex -11.4945 -3.07995 4
    endloop
  endfacet
  facet normal 0.95371 0.300728 0
    outer loop
      vertex -11.4945 -3.07995 0
      vertex -11.1823 -4.07004 4
      vertex -11.1823 -4.07004 0
    endloop
  endfacet
  facet normal -0.923907 -0.382617 0
    outer loop
      vertex 11.1823 4.07004 0
      vertex 10.7851 5.02916 4
      vertex 10.7851 5.02916 0
    endloop
  endfacet
  facet normal -0.923907 -0.382617 0
    outer loop
      vertex 10.7851 5.02916 4
      vertex 11.1823 4.07004 0
      vertex 11.1823 4.07004 4
    endloop
  endfacet
  facet normal 0.46178 -0.886995 0
    outer loop
      vertex -5.95 10.3057 0
      vertex -5.02916 10.7851 4
      vertex -5.95 10.3057 4
    endloop
  endfacet
  facet normal 0.46178 -0.886995 0
    outer loop
      vertex -5.02916 10.7851 4
      vertex -5.95 10.3057 0
      vertex -5.02916 10.7851 0
    endloop
  endfacet
  facet normal 0.737277 -0.67559 0
    outer loop
      vertex -9.11593 7.64917 4
      vertex -8.41457 8.41457 0
      vertex -8.41457 8.41457 4
    endloop
  endfacet
  facet normal 0.737277 -0.67559 0
    outer loop
      vertex -8.41457 8.41457 0
      vertex -9.11593 7.64917 4
      vertex -9.11593 7.64917 0
    endloop
  endfacet
  facet normal -0.46178 0.886995 0
    outer loop
      vertex 5.95 -10.3057 0
      vertex 5.02916 -10.7851 4
      vertex 5.95 -10.3057 4
    endloop
  endfacet
  facet normal -0.46178 0.886995 0
    outer loop
      vertex 5.02916 -10.7851 4
      vertex 5.95 -10.3057 0
      vertex 5.02916 -10.7851 0
    endloop
  endfacet
  facet normal -0.793352 0.608763 0
    outer loop
      vertex 9.11593 -7.64917 0
      vertex 9.74791 -6.82556 4
      vertex 9.74791 -6.82556 0
    endloop
  endfacet
  facet normal -0.793352 0.608763 0
    outer loop
      vertex 9.74791 -6.82556 4
      vertex 9.11593 -7.64917 0
      vertex 9.11593 -7.64917 4
    endloop
  endfacet
  facet normal 0.382617 0.923907 -0
    outer loop
      vertex -4.07004 -11.1823 0
      vertex -5.02916 -10.7851 4
      vertex -4.07004 -11.1823 4
    endloop
  endfacet
  facet normal 0.382617 0.923907 0
    outer loop
      vertex -5.02916 -10.7851 4
      vertex -4.07004 -11.1823 0
      vertex -5.02916 -10.7851 0
    endloop
  endfacet
  facet normal -0.923907 0.382617 0
    outer loop
      vertex 10.7851 -5.02916 0
      vertex 11.1823 -4.07004 4
      vertex 11.1823 -4.07004 0
    endloop
  endfacet
  facet normal -0.923907 0.382617 0
    outer loop
      vertex 11.1823 -4.07004 4
      vertex 10.7851 -5.02916 0
      vertex 10.7851 -5.02916 4
    endloop
  endfacet
  facet normal -0.46178 -0.886995 0
    outer loop
      vertex 5.02916 10.7851 0
      vertex 5.95 10.3057 4
      vertex 5.02916 10.7851 4
    endloop
  endfacet
  facet normal -0.46178 -0.886995 -0
    outer loop
      vertex 5.95 10.3057 4
      vertex 5.02916 10.7851 0
      vertex 5.95 10.3057 0
    endloop
  endfacet
  facet normal 0.95371 -0.300728 0
    outer loop
      vertex -11.4945 3.07995 4
      vertex -11.1823 4.07004 0
      vertex -11.1823 4.07004 4
    endloop
  endfacet
  facet normal 0.95371 -0.300728 0
    outer loop
      vertex -11.1823 4.07004 0
      vertex -11.4945 3.07995 4
      vertex -11.4945 3.07995 0
    endloop
  endfacet
  facet normal 0.976286 0.216485 0
    outer loop
      vertex -11.4945 -3.07995 4
      vertex -11.6231 -2.5 0
      vertex -11.6231 -2.5 4
    endloop
  endfacet
  facet normal 0.976286 0.216485 0
    outer loop
      vertex -11.6231 -2.5 0
      vertex -11.4945 -3.07995 4
      vertex -11.4945 -3.07995 0
    endloop
  endfacet
  facet normal -0.976286 0.216485 0
    outer loop
      vertex 11.4945 -3.07995 0
      vertex 11.6231 -2.5 4
      vertex 11.6231 -2.5 0
    endloop
  endfacet
  facet normal -0.976286 0.216485 0
    outer loop
      vertex 11.6231 -2.5 4
      vertex 11.4945 -3.07995 0
      vertex 11.4945 -3.07995 4
    endloop
  endfacet
  facet normal 0.300728 -0.95371 0
    outer loop
      vertex -4.07004 11.1823 0
      vertex -3.07995 11.4945 4
      vertex -4.07004 11.1823 4
    endloop
  endfacet
  facet normal 0.300728 -0.95371 0
    outer loop
      vertex -3.07995 11.4945 4
      vertex -4.07004 11.1823 0
      vertex -3.07995 11.4945 0
    endloop
  endfacet
  facet normal 0.843393 -0.537297 0
    outer loop
      vertex -10.3057 5.95 4
      vertex -9.74791 6.82556 0
      vertex -9.74791 6.82556 4
    endloop
  endfacet
  facet normal 0.843393 -0.537297 0
    outer loop
      vertex -9.74791 6.82556 0
      vertex -10.3057 5.95 4
      vertex -10.3057 5.95 0
    endloop
  endfacet
  facet normal -0.300728 0.95371 0
    outer loop
      vertex 4.07004 -11.1823 0
      vertex 3.07995 -11.4945 4
      vertex 4.07004 -11.1823 4
    endloop
  endfacet
  facet normal -0.300728 0.95371 0
    outer loop
      vertex 3.07995 -11.4945 4
      vertex 4.07004 -11.1823 0
      vertex 3.07995 -11.4945 0
    endloop
  endfacet
  facet normal 0.216485 -0.976286 0
    outer loop
      vertex -3.07995 11.4945 0
      vertex -2.5 11.6231 4
      vertex -3.07995 11.4945 4
    endloop
  endfacet
  facet normal 0.216485 -0.976286 0
    outer loop
      vertex -2.5 11.6231 4
      vertex -3.07995 11.4945 0
      vertex -2.5 11.6231 0
    endloop
  endfacet
  facet normal -0.793352 -0.608763 0
    outer loop
      vertex 9.74791 6.82556 0
      vertex 9.11593 7.64917 4
      vertex 9.11593 7.64917 0
    endloop
  endfacet
  facet normal -0.793352 -0.608763 0
    outer loop
      vertex 9.11593 7.64917 4
      vertex 9.74791 6.82556 0
      vertex 9.74791 6.82556 4
    endloop
  endfacet
  facet normal -0.886995 0.46178 0
    outer loop
      vertex 10.3057 -5.95 0
      vertex 10.7851 -5.02916 4
      vertex 10.7851 -5.02916 0
    endloop
  endfacet
  facet normal -0.886995 0.46178 0
    outer loop
      vertex 10.7851 -5.02916 4
      vertex 10.3057 -5.95 0
      vertex 10.3057 -5.95 4
    endloop
  endfacet
  facet normal 0.737277 0.67559 0
    outer loop
      vertex -8.41457 -8.41457 4
      vertex -9.11593 -7.64917 0
      vertex -9.11593 -7.64917 4
    endloop
  endfacet
  facet normal 0.737277 0.67559 0
    outer loop
      vertex -9.11593 -7.64917 0
      vertex -8.41457 -8.41457 4
      vertex -8.41457 -8.41457 0
    endloop
  endfacet
  facet normal -0.608763 -0.793352 0
    outer loop
      vertex 6.82556 9.74791 0
      vertex 7.64917 9.11593 4
      vertex 6.82556 9.74791 4
    endloop
  endfacet
  facet normal -0.608763 -0.793352 -0
    outer loop
      vertex 7.64917 9.11593 4
      vertex 6.82556 9.74791 0
      vertex 7.64917 9.11593 0
    endloop
  endfacet
  facet normal -0.300728 -0.95371 0
    outer loop
      vertex 3.07995 11.4945 0
      vertex 4.07004 11.1823 4
      vertex 3.07995 11.4945 4
    endloop
  endfacet
  facet normal -0.300728 -0.95371 -0
    outer loop
      vertex 4.07004 11.1823 4
      vertex 3.07995 11.4945 0
      vertex 4.07004 11.1823 0
    endloop
  endfacet
  facet normal -0.537297 -0.843393 0
    outer loop
      vertex 5.95 10.3057 0
      vertex 6.82556 9.74791 4
      vertex 5.95 10.3057 4
    endloop
  endfacet
  facet normal -0.537297 -0.843393 -0
    outer loop
      vertex 6.82556 9.74791 4
      vertex 5.95 10.3057 0
      vertex 6.82556 9.74791 0
    endloop
  endfacet
  facet normal -0.95371 -0.300728 0
    outer loop
      vertex 11.4945 3.07995 0
      vertex 11.1823 4.07004 4
      vertex 11.1823 4.07004 0
    endloop
  endfacet
  facet normal -0.95371 -0.300728 0
    outer loop
      vertex 11.1823 4.07004 4
      vertex 11.4945 3.07995 0
      vertex 11.4945 3.07995 4
    endloop
  endfacet
  facet normal -0.843393 0.537297 0
    outer loop
      vertex 9.74791 -6.82556 0
      vertex 10.3057 -5.95 4
      vertex 10.3057 -5.95 0
    endloop
  endfacet
  facet normal -0.843393 0.537297 0
    outer loop
      vertex 10.3057 -5.95 4
      vertex 9.74791 -6.82556 0
      vertex 9.74791 -6.82556 4
    endloop
  endfacet
  facet normal 0.608763 -0.793352 0
    outer loop
      vertex -7.64917 9.11593 0
      vertex -6.82556 9.74791 4
      vertex -7.64917 9.11593 4
    endloop
  endfacet
  facet normal 0.608763 -0.793352 0
    outer loop
      vertex -6.82556 9.74791 4
      vertex -7.64917 9.11593 0
      vertex -6.82556 9.74791 0
    endloop
  endfacet
  facet normal 0.382617 -0.923907 0
    outer loop
      vertex -5.02916 10.7851 0
      vertex -4.07004 11.1823 4
      vertex -5.02916 10.7851 4
    endloop
  endfacet
  facet normal 0.382617 -0.923907 0
    outer loop
      vertex -4.07004 11.1823 4
      vertex -5.02916 10.7851 0
      vertex -4.07004 11.1823 0
    endloop
  endfacet
  facet normal -0.843393 -0.537297 0
    outer loop
      vertex 10.3057 5.95 0
      vertex 9.74791 6.82556 4
      vertex 9.74791 6.82556 0
    endloop
  endfacet
  facet normal -0.843393 -0.537297 0
    outer loop
      vertex 9.74791 6.82556 4
      vertex 10.3057 5.95 0
      vertex 10.3057 5.95 4
    endloop
  endfacet
  facet normal 0.976286 -0.216485 0
    outer loop
      vertex -11.6231 2.5 4
      vertex -11.4945 3.07995 0
      vertex -11.4945 3.07995 4
    endloop
  endfacet
  facet normal 0.976286 -0.216485 0
    outer loop
      vertex -11.4945 3.07995 0
      vertex -11.6231 2.5 4
      vertex -11.6231 2.5 0
    endloop
  endfacet
  facet normal 0.67559 -0.737277 0
    outer loop
      vertex -8.41457 8.41457 0
      vertex -7.64917 9.11593 4
      vertex -8.41457 8.41457 4
    endloop
  endfacet
  facet normal 0.67559 -0.737277 0
    outer loop
      vertex -7.64917 9.11593 4
      vertex -8.41457 8.41457 0
      vertex -7.64917 9.11593 0
    endloop
  endfacet
  facet normal 0.46178 0.886995 -0
    outer loop
      vertex -5.02916 -10.7851 0
      vertex -5.95 -10.3057 4
      vertex -5.02916 -10.7851 4
    endloop
  endfacet
  facet normal 0.46178 0.886995 0
    outer loop
      vertex -5.95 -10.3057 4
      vertex -5.02916 -10.7851 0
      vertex -5.95 -10.3057 0
    endloop
  endfacet
  facet normal 0.923907 -0.382617 0
    outer loop
      vertex -11.1823 4.07004 4
      vertex -10.7851 5.02916 0
      vertex -10.7851 5.02916 4
    endloop
  endfacet
  facet normal 0.923907 -0.382617 0
    outer loop
      vertex -10.7851 5.02916 0
      vertex -11.1823 4.07004 4
      vertex -11.1823 4.07004 0
    endloop
  endfacet
  facet normal 0.923907 0.382617 0
    outer loop
      vertex -10.7851 -5.02916 4
      vertex -11.1823 -4.07004 0
      vertex -11.1823 -4.07004 4
    endloop
  endfacet
  facet normal 0.923907 0.382617 0
    outer loop
      vertex -11.1823 -4.07004 0
      vertex -10.7851 -5.02916 4
      vertex -10.7851 -5.02916 0
    endloop
  endfacet
  facet normal 0.793352 0.608763 0
    outer loop
      vertex -9.11593 -7.64917 4
      vertex -9.74791 -6.82556 0
      vertex -9.74791 -6.82556 4
    endloop
  endfacet
  facet normal 0.793352 0.608763 0
    outer loop
      vertex -9.74791 -6.82556 0
      vertex -9.11593 -7.64917 4
      vertex -9.11593 -7.64917 0
    endloop
  endfacet
  facet normal 0.608763 0.793352 -0
    outer loop
      vertex -6.82556 -9.74791 0
      vertex -7.64917 -9.11593 4
      vertex -6.82556 -9.74791 4
    endloop
  endfacet
  facet normal 0.608763 0.793352 0
    outer loop
      vertex -7.64917 -9.11593 4
      vertex -6.82556 -9.74791 0
      vertex -7.64917 -9.11593 0
    endloop
  endfacet
  facet normal -0.382617 0.923907 0
    outer loop
      vertex 5.02916 -10.7851 0
      vertex 4.07004 -11.1823 4
      vertex 5.02916 -10.7851 4
    endloop
  endfacet
  facet normal -0.382617 0.923907 0
    outer loop
      vertex 4.07004 -11.1823 4
      vertex 5.02916 -10.7851 0
      vertex 4.07004 -11.1823 0
    endloop
  endfacet
  facet normal -0.737277 -0.67559 0
    outer loop
      vertex 9.11593 7.64917 0
      vertex 8.41457 8.41457 4
      vertex 8.41457 8.41457 0
    endloop
  endfacet
  facet normal -0.737277 -0.67559 0
    outer loop
      vertex 8.41457 8.41457 4
      vertex 9.11593 7.64917 0
      vertex 9.11593 7.64917 4
    endloop
  endfacet
  facet normal 0.843393 0.537297 0
    outer loop
      vertex -9.74791 -6.82556 4
      vertex -10.3057 -5.95 0
      vertex -10.3057 -5.95 4
    endloop
  endfacet
  facet normal 0.843393 0.537297 0
    outer loop
      vertex -10.3057 -5.95 0
      vertex -9.74791 -6.82556 4
      vertex -9.74791 -6.82556 0
    endloop
  endfacet
  facet normal -0.216485 0.976286 0
    outer loop
      vertex 3.07995 -11.4945 0
      vertex 2.5 -11.6231 4
      vertex 3.07995 -11.4945 4
    endloop
  endfacet
  facet normal -0.216485 0.976286 0
    outer loop
      vertex 2.5 -11.6231 4
      vertex 3.07995 -11.4945 0
      vertex 2.5 -11.6231 0
    endloop
  endfacet
  facet normal -0.886995 -0.46178 0
    outer loop
      vertex 10.7851 5.02916 0
      vertex 10.3057 5.95 4
      vertex 10.3057 5.95 0
    endloop
  endfacet
  facet normal -0.886995 -0.46178 0
    outer loop
      vertex 10.3057 5.95 4
      vertex 10.7851 5.02916 0
      vertex 10.7851 5.02916 4
    endloop
  endfacet
  facet normal -0.95371 0.300728 0
    outer loop
      vertex 11.1823 -4.07004 0
      vertex 11.4945 -3.07995 4
      vertex 11.4945 -3.07995 0
    endloop
  endfacet
  facet normal -0.95371 0.300728 0
    outer loop
      vertex 11.4945 -3.07995 4
      vertex 11.1823 -4.07004 0
      vertex 11.1823 -4.07004 4
    endloop
  endfacet
  facet normal -0.608763 0.793352 0
    outer loop
      vertex 7.64917 -9.11593 0
      vertex 6.82556 -9.74791 4
      vertex 7.64917 -9.11593 4
    endloop
  endfacet
  facet normal -0.608763 0.793352 0
    outer loop
      vertex 6.82556 -9.74791 4
      vertex 7.64917 -9.11593 0
      vertex 6.82556 -9.74791 0
    endloop
  endfacet
  facet normal -0.67559 -0.737277 0
    outer loop
      vertex 7.64917 9.11593 0
      vertex 8.41457 8.41457 4
      vertex 7.64917 9.11593 4
    endloop
  endfacet
  facet normal -0.67559 -0.737277 -0
    outer loop
      vertex 8.41457 8.41457 4
      vertex 7.64917 9.11593 0
      vertex 8.41457 8.41457 0
    endloop
  endfacet
  facet normal -0.537297 0.843393 0
    outer loop
      vertex 6.82556 -9.74791 0
      vertex 5.95 -10.3057 4
      vertex 6.82556 -9.74791 4
    endloop
  endfacet
  facet normal -0.537297 0.843393 0
    outer loop
      vertex 5.95 -10.3057 4
      vertex 6.82556 -9.74791 0
      vertex 5.95 -10.3057 0
    endloop
  endfacet
  facet normal 0.886995 0.46178 0
    outer loop
      vertex -10.3057 -5.95 4
      vertex -10.7851 -5.02916 0
      vertex -10.7851 -5.02916 4
    endloop
  endfacet
  facet normal 0.886995 0.46178 0
    outer loop
      vertex -10.7851 -5.02916 0
      vertex -10.3057 -5.95 4
      vertex -10.3057 -5.95 0
    endloop
  endfacet
  facet normal 0.300728 0.95371 -0
    outer loop
      vertex -3.07995 -11.4945 0
      vertex -4.07004 -11.1823 4
      vertex -3.07995 -11.4945 4
    endloop
  endfacet
  facet normal 0.300728 0.95371 0
    outer loop
      vertex -4.07004 -11.1823 4
      vertex -3.07995 -11.4945 0
      vertex -4.07004 -11.1823 0
    endloop
  endfacet
  facet normal 0.216485 0.976286 -0
    outer loop
      vertex -2.5 -11.6231 0
      vertex -3.07995 -11.4945 4
      vertex -2.5 -11.6231 4
    endloop
  endfacet
  facet normal 0.216485 0.976286 0
    outer loop
      vertex -3.07995 -11.4945 4
      vertex -2.5 -11.6231 0
      vertex -3.07995 -11.4945 0
    endloop
  endfacet
  facet normal -0.737277 0.67559 0
    outer loop
      vertex 8.41457 -8.41457 0
      vertex 9.11593 -7.64917 4
      vertex 9.11593 -7.64917 0
    endloop
  endfacet
  facet normal -0.737277 0.67559 0
    outer loop
      vertex 9.11593 -7.64917 4
      vertex 8.41457 -8.41457 0
      vertex 8.41457 -8.41457 4
    endloop
  endfacet
  facet normal -0.67559 0.737277 0
    outer loop
      vertex 8.41457 -8.41457 0
      vertex 7.64917 -9.11593 4
      vertex 8.41457 -8.41457 4
    endloop
  endfacet
  facet normal -0.67559 0.737277 0
    outer loop
      vertex 7.64917 -9.11593 4
      vertex 8.41457 -8.41457 0
      vertex 7.64917 -9.11593 0
    endloop
  endfacet
  facet normal -0.216485 -0.976286 0
    outer loop
      vertex 2.5 11.6231 0
      vertex 3.07995 11.4945 4
      vertex 2.5 11.6231 4
    endloop
  endfacet
  facet normal -0.216485 -0.976286 -0
    outer loop
      vertex 3.07995 11.4945 4
      vertex 2.5 11.6231 0
      vertex 3.07995 11.4945 0
    endloop
  endfacet
  facet normal 0.537297 -0.843393 0
    outer loop
      vertex -6.82556 9.74791 0
      vertex -5.95 10.3057 4
      vertex -6.82556 9.74791 4
    endloop
  endfacet
  facet normal 0.537297 -0.843393 0
    outer loop
      vertex -5.95 10.3057 4
      vertex -6.82556 9.74791 0
      vertex -5.95 10.3057 0
    endloop
  endfacet
  facet normal 0.537297 0.843393 -0
    outer loop
      vertex -5.95 -10.3057 0
      vertex -6.82556 -9.74791 4
      vertex -5.95 -10.3057 4
    endloop
  endfacet
  facet normal 0.537297 0.843393 0
    outer loop
      vertex -6.82556 -9.74791 4
      vertex -5.95 -10.3057 0
      vertex -6.82556 -9.74791 0
    endloop
  endfacet
  facet normal 0.886995 -0.46178 0
    outer loop
      vertex -10.7851 5.02916 4
      vertex -10.3057 5.95 0
      vertex -10.3057 5.95 4
    endloop
  endfacet
  facet normal 0.886995 -0.46178 0
    outer loop
      vertex -10.3057 5.95 0
      vertex -10.7851 5.02916 4
      vertex -10.7851 5.02916 0
    endloop
  endfacet
  facet normal 0.793352 -0.608763 0
    outer loop
      vertex -9.74791 6.82556 4
      vertex -9.11593 7.64917 0
      vertex -9.11593 7.64917 4
    endloop
  endfacet
  facet normal 0.793352 -0.608763 0
    outer loop
      vertex -9.11593 7.64917 0
      vertex -9.74791 6.82556 4
      vertex -9.74791 6.82556 0
    endloop
  endfacet
endsolid OpenSCAD_Model
